<svg xmlns="http://www.w3.org/2000/svg" width="11.17" height="11.17" viewBox="0 0 11.17 11.17">
  <path id="percent_FILL1_wght400_GRAD0_opsz24" d="M162.443-795.113a2.354,2.354,0,0,1-1.728-.716,2.354,2.354,0,0,1-.716-1.728,2.355,2.355,0,0,1,.716-1.728,2.355,2.355,0,0,1,1.728-.716,2.355,2.355,0,0,1,1.728.716,2.355,2.355,0,0,1,.716,1.728,2.354,2.354,0,0,1-.716,1.728A2.354,2.354,0,0,1,162.443-795.113Zm0-1.4a1.01,1.01,0,0,0,.742-.305,1.01,1.01,0,0,0,.305-.742,1.01,1.01,0,0,0-.305-.742,1.01,1.01,0,0,0-.742-.305,1.01,1.01,0,0,0-.742.305,1.01,1.01,0,0,0-.305.742,1.01,1.01,0,0,0,.305.742A1.01,1.01,0,0,0,162.443-796.509Zm6.283,7.68a2.355,2.355,0,0,1-1.728-.716,2.355,2.355,0,0,1-.716-1.728A2.355,2.355,0,0,1,167-793a2.354,2.354,0,0,1,1.728-.716,2.354,2.354,0,0,1,1.728.716,2.354,2.354,0,0,1,.716,1.728,2.355,2.355,0,0,1-.716,1.728A2.355,2.355,0,0,1,168.727-788.83Zm0-1.4a1.01,1.01,0,0,0,.742-.305,1.01,1.01,0,0,0,.305-.742,1.01,1.01,0,0,0-.305-.742,1.01,1.01,0,0,0-.742-.305,1.01,1.01,0,0,0-.742.305,1.01,1.01,0,0,0-.305.742,1.01,1.01,0,0,0,.305.742A1.01,1.01,0,0,0,168.727-790.226Zm-7.749,1.4-.977-.977L170.193-800l.977.977Z" transform="translate(-160 800)" fill="#b20d1b"/>
</svg>
