<svg id="select" xmlns="http://www.w3.org/2000/svg" width="22.671" height="20.801" viewBox="0 0 22.671 20.801">
  <path id="favorite_FILL0_wght400_GRAD0_opsz24" d="M91.335-833.2l-1.644-1.474q-2.862-2.579-4.733-4.449a31.353,31.353,0,0,1-2.976-3.358,10.67,10.67,0,0,1-1.544-2.735,7.624,7.624,0,0,1-.439-2.55,6.038,6.038,0,0,1,1.785-4.449A6.039,6.039,0,0,1,86.234-854a6.539,6.539,0,0,1,2.806.623,6.721,6.721,0,0,1,2.3,1.757,6.721,6.721,0,0,1,2.3-1.757A6.539,6.539,0,0,1,96.436-854a6.039,6.039,0,0,1,4.449,1.785,6.038,6.038,0,0,1,1.785,4.449,7.624,7.624,0,0,1-.439,2.55,10.67,10.67,0,0,1-1.544,2.735,31.353,31.353,0,0,1-2.976,3.358q-1.87,1.87-4.733,4.449Zm0-3.061q2.72-2.437,4.477-4.18a35.324,35.324,0,0,0,2.777-3.032,9.475,9.475,0,0,0,1.417-2.3,5.414,5.414,0,0,0,.4-2A3.845,3.845,0,0,0,99.27-850.6a3.845,3.845,0,0,0-2.834-1.134,4.376,4.376,0,0,0-2.465.751,3.863,3.863,0,0,0-1.559,1.913H90.259a3.863,3.863,0,0,0-1.559-1.913,4.376,4.376,0,0,0-2.465-.751A3.845,3.845,0,0,0,83.4-850.6a3.845,3.845,0,0,0-1.134,2.834,5.414,5.414,0,0,0,.4,2,9.476,9.476,0,0,0,1.417,2.3,35.322,35.322,0,0,0,2.777,3.032Q88.615-838.7,91.335-836.26ZM91.335-844Z" transform="translate(-80 854)"/>
</svg>
