<svg xmlns="http://www.w3.org/2000/svg" width="27.129" height="27.123" viewBox="0 0 27.129 27.123">
  <path id="instagram-brands" d="M13.492,38.433a6.954,6.954,0,1,0,6.954,6.954A6.943,6.943,0,0,0,13.492,38.433Zm0,11.475a4.521,4.521,0,1,1,4.521-4.521A4.529,4.529,0,0,1,13.492,49.908Zm8.86-11.759a1.622,1.622,0,1,1-1.622-1.622A1.618,1.618,0,0,1,22.353,38.148Zm4.606,1.646a8.027,8.027,0,0,0-2.191-5.683,8.079,8.079,0,0,0-5.683-2.191c-2.239-.127-8.951-.127-11.19,0a8.068,8.068,0,0,0-5.683,2.185A8.053,8.053,0,0,0,.02,39.788c-.127,2.239-.127,8.951,0,11.191a8.027,8.027,0,0,0,2.191,5.683,8.09,8.09,0,0,0,5.683,2.191c2.239.127,8.951.127,11.19,0a8.027,8.027,0,0,0,5.683-2.191,8.08,8.08,0,0,0,2.191-5.683C27.086,48.739,27.086,42.034,26.959,39.794ZM24.066,53.382a4.577,4.577,0,0,1-2.578,2.578c-1.785.708-6.022.545-7.995.545s-6.216.157-7.995-.545a4.577,4.577,0,0,1-2.578-2.578c-.708-1.785-.545-6.022-.545-7.995s-.157-6.216.545-7.995A4.577,4.577,0,0,1,5.5,34.813c1.785-.708,6.022-.545,7.995-.545s6.216-.157,7.995.545a4.577,4.577,0,0,1,2.578,2.578c.708,1.785.545,6.022.545,7.995S24.774,51.6,24.066,53.382Z" transform="translate(0.075 -31.825)" fill="#fff"/>
</svg>
