<svg xmlns="http://www.w3.org/2000/svg" width="27.114" height="27.114" viewBox="0 0 27.114 27.114">
  <path id="linkedin-brands" d="M25.177,32H1.931A1.945,1.945,0,0,0,0,33.955v23.2a1.945,1.945,0,0,0,1.931,1.955H25.177a1.95,1.95,0,0,0,1.937-1.955v-23.2A1.95,1.95,0,0,0,25.177,32ZM8.195,55.241H4.176V42.3H8.2v12.94ZM6.185,40.534a2.33,2.33,0,1,1,2.33-2.33A2.331,2.331,0,0,1,6.185,40.534ZM23.258,55.241H19.24V48.946c0-1.5-.03-3.432-2.088-3.432-2.094,0-2.415,1.634-2.415,3.323v6.4H10.718V42.3h3.855v1.767h.054a4.233,4.233,0,0,1,3.807-2.088c4.067,0,4.824,2.681,4.824,6.167Z" transform="translate(0 -32)" fill="#fff"/>
</svg>
