<svg xmlns="http://www.w3.org/2000/svg" width="33" height="33" viewBox="0 0 33 33">
  <path id="search_FILL0_wght400_GRAD0_opsz24" d="M150.433-807l-11.55-11.55a10.923,10.923,0,0,1-3.162,1.742,11.175,11.175,0,0,1-3.8.642,11.5,11.5,0,0,1-8.456-3.46,11.5,11.5,0,0,1-3.46-8.456,11.5,11.5,0,0,1,3.46-8.456,11.5,11.5,0,0,1,8.456-3.46,11.5,11.5,0,0,1,8.456,3.46,11.5,11.5,0,0,1,3.46,8.456,11.173,11.173,0,0,1-.642,3.8,10.924,10.924,0,0,1-1.742,3.163L153-809.567Zm-18.517-12.833a7.956,7.956,0,0,0,5.844-2.406,7.956,7.956,0,0,0,2.406-5.844,7.956,7.956,0,0,0-2.406-5.844,7.956,7.956,0,0,0-5.844-2.406,7.956,7.956,0,0,0-5.844,2.406,7.956,7.956,0,0,0-2.406,5.844,7.956,7.956,0,0,0,2.406,5.844A7.956,7.956,0,0,0,131.917-819.833Z" transform="translate(-120 840)" fill="#fff"/>
</svg>
