<svg xmlns="http://www.w3.org/2000/svg" width="18.734" height="18.734" viewBox="0 0 18.734 18.734">
  <path id="whatsapp-brands" d="M15.928,34.722a9.287,9.287,0,0,0-14.611,11.2L0,50.734l4.922-1.292a9.255,9.255,0,0,0,4.437,1.129h0a9.225,9.225,0,0,0,6.565-15.849ZM9.363,49.007a7.7,7.7,0,0,1-3.931-1.075l-.28-.167-2.919.765.778-2.848-.184-.293a7.731,7.731,0,1,1,14.339-4.1A7.8,7.8,0,0,1,9.363,49.007Zm4.232-5.779c-.23-.117-1.372-.677-1.585-.753s-.368-.117-.523.117-.6.753-.736.912-.272.176-.5.059A6.314,6.314,0,0,1,7.092,40.8c-.238-.41.238-.381.682-1.267a.43.43,0,0,0-.021-.406c-.059-.117-.523-1.259-.715-1.723s-.381-.389-.523-.4S6.227,37,6.072,37a.859.859,0,0,0-.619.289,2.607,2.607,0,0,0-.811,1.936,4.544,4.544,0,0,0,.945,2.4,10.366,10.366,0,0,0,3.964,3.5,4.539,4.539,0,0,0,2.785.581,2.376,2.376,0,0,0,1.564-1.1,1.94,1.94,0,0,0,.134-1.1C13.98,43.4,13.825,43.341,13.595,43.228Z" transform="translate(0 -32)" fill="#fff"/>
</svg>
