<svg xmlns="http://www.w3.org/2000/svg" width="33.053" height="23.241" viewBox="0 0 33.053 23.241">
  <path id="youtube-brands" d="M47.3,67.636A4.153,4.153,0,0,0,44.373,64.7C41.8,64,31.459,64,31.459,64s-10.336,0-12.914.7a4.153,4.153,0,0,0-2.922,2.941,46.763,46.763,0,0,0,0,16.015,4.091,4.091,0,0,0,2.922,2.894c2.578.7,12.914.7,12.914.7s10.336,0,12.914-.7A4.091,4.091,0,0,0,47.3,83.651a46.763,46.763,0,0,0,0-16.015ZM28.079,80.558V70.729l8.639,4.915-8.639,4.914Z" transform="translate(-14.933 -64)" fill="#d5d5d5"/>
</svg>
